# xmcd CD database file
#
# Track frame offsets:
#	150
#	20687
#	39271
#	56113
#	73389
#	88856
#	104672
#	122188
#	136697
#	155027
#	172214
#	186233
#	210624
#	229554
#	247318
#	266490
#
# Disc length: 3785 seconds
#
# Revision: 0
# Processed by: cddbd v1.5.1PL0 Copyright (c) Steve Scherf et al.
# Submitted via: CDex 1.51
#
DISCID=f70ec710
DTITLE=おニャン子クラブ - おニャン子クラブ大全集 下 DISC3：○ Circle(?)
DYEAR=2005
DGENRE=JPop
TTITLE0=ONE NIGHT ONLY
TTITLE1=シンデレラのシューズ
TTITLE2=真赤なミニスカート
TTITLE3=黄昏にキスをしないで
TTITLE4=雨のあやとり
TTITLE5=割ってしまった卵
TTITLE6=風の物語
TTITLE7=白いコスモスの頃
TTITLE8=未完成なジグソーパズル
TTITLE9=赤道探検隊
TTITLE10=間に合うかもしれない
TTITLE11=STAGE DOOR
TTITLE12=かたつむりサンバ
TTITLE13=めしべとおしべ
TTITLE14=ウェディング ドレス
TTITLE15=私をよろしく
EXTD=YEAR: 2005
EXTT0=
EXTT1=
EXTT2=
EXTT3=
EXTT4=
EXTT5=
EXTT6=
EXTT7=
EXTT8=
EXTT9=
EXTT10=
EXTT11=
EXTT12=
EXTT13=
EXTT14=
EXTT15=
PLAYORDER=
